<?xml version="1.0" encoding="UTF-8" standalone="no"?>
<svg width="16px" height="16px" viewBox="0 0 16 16" version="1.1" xmlns="http://www.w3.org/2000/svg" xmlns:xlink="http://www.w3.org/1999/xlink" xmlns:sketch="http://www.bohemiancoding.com/sketch/ns">
    <!-- Generator: Sketch 3.3.3 (12072) - http://www.bohemiancoding.com/sketch -->
    <title>Rectangle 30</title>
    <desc>Created with Sketch.</desc>
    <defs></defs>
    <g id="Welcome" stroke="none" stroke-width="1" fill="none" fill-rule="evenodd" sketch:type="MSPage">
        <rect id="Rectangle-30" fill="#FFFFFF" sketch:type="MSShapeGroup" x="0" y="0" width="16" height="16"></rect>
        <path d="M6,12.9941406 L6,3 L7.859375,3 L7.859375,11.3671875 L10.4365234,11.3671875 L10.4365234,12.9941406 L6,12.9941406 Z" id="L" fill-opacity="0.1" fill="#EF4723" sketch:type="MSShapeGroup"></path>
        <rect id="Rectangle-32" fill="#EF4723" sketch:type="MSShapeGroup" x="10" y="11" width="1" height="1"></rect>
        <rect id="Rectangle-32-Copy" fill="#EF4723" sketch:type="MSShapeGroup" x="10" y="12" width="1" height="1"></rect>
        <rect id="Rectangle-32-Copy-2" fill="#EF4723" sketch:type="MSShapeGroup" x="9" y="12" width="1" height="1"></rect>
        <rect id="Rectangle-32-Copy-3" fill="#EF4723" sketch:type="MSShapeGroup" x="9" y="11" width="1" height="1"></rect>
        <rect id="Rectangle-32-Copy-4" fill="#EF4723" sketch:type="MSShapeGroup" x="8" y="11" width="1" height="1"></rect>
        <rect id="Rectangle-32-Copy-5" fill="#EF4723" sketch:type="MSShapeGroup" x="8" y="12" width="1" height="1"></rect>
        <rect id="Rectangle-32-Copy-6" fill="#EF4723" sketch:type="MSShapeGroup" x="7" y="12" width="1" height="1"></rect>
        <rect id="Rectangle-32-Copy-14" fill="#EF4723" sketch:type="MSShapeGroup" x="7" y="8" width="1" height="1"></rect>
        <rect id="Rectangle-32-Copy-7" fill="#EF4723" sketch:type="MSShapeGroup" x="6" y="12" width="1" height="1"></rect>
        <rect id="Rectangle-32-Copy-15" fill="#EF4723" sketch:type="MSShapeGroup" x="6" y="8" width="1" height="1"></rect>
        <rect id="Rectangle-32-Copy-8" fill="#EF4723" sketch:type="MSShapeGroup" x="6" y="11" width="1" height="1"></rect>
        <rect id="Rectangle-32-Copy-16" fill="#EF4723" sketch:type="MSShapeGroup" x="6" y="7" width="1" height="1"></rect>
        <rect id="Rectangle-32-Copy-9" fill="#EF4723" sketch:type="MSShapeGroup" x="7" y="11" width="1" height="1"></rect>
        <rect id="Rectangle-32-Copy-17" fill="#EF4723" sketch:type="MSShapeGroup" x="7" y="7" width="1" height="1"></rect>
        <rect id="Rectangle-32-Copy-10" fill="#EF4723" sketch:type="MSShapeGroup" x="7" y="10" width="1" height="1"></rect>
        <rect id="Rectangle-32-Copy-11" fill="#EF4723" sketch:type="MSShapeGroup" x="6" y="10" width="1" height="1"></rect>
        <rect id="Rectangle-32-Copy-18" fill="#EF4723" sketch:type="MSShapeGroup" x="6" y="6" width="1" height="1"></rect>
        <rect id="Rectangle-32-Copy-22" fill="#EF4723" sketch:type="MSShapeGroup" x="6" y="4" width="1" height="1"></rect>
        <rect id="Rectangle-32-Copy-12" fill="#EF4723" sketch:type="MSShapeGroup" x="6" y="9" width="1" height="1"></rect>
        <rect id="Rectangle-32-Copy-19" fill="#EF4723" sketch:type="MSShapeGroup" x="6" y="5" width="1" height="1"></rect>
        <rect id="Rectangle-32-Copy-23" fill="#EF4723" sketch:type="MSShapeGroup" x="6" y="3" width="1" height="1"></rect>
        <rect id="Rectangle-32-Copy-13" fill="#EF4723" sketch:type="MSShapeGroup" x="7" y="9" width="1" height="1"></rect>
        <rect id="Rectangle-32-Copy-20" fill="#EF4723" sketch:type="MSShapeGroup" x="7" y="5" width="1" height="1"></rect>
        <rect id="Rectangle-32-Copy-24" fill="#EF4723" sketch:type="MSShapeGroup" x="7" y="3" width="1" height="1"></rect>
        <rect id="Rectangle-32-Copy-21" fill="#EF4723" sketch:type="MSShapeGroup" x="7" y="6" width="1" height="1"></rect>
        <rect id="Rectangle-32-Copy-25" fill="#EF4723" sketch:type="MSShapeGroup" x="7" y="4" width="1" height="1"></rect>
    </g>
</svg>